<svg version="1.1" id="Layer_1" xmlns="http://www.w3.org/2000/svg" xmlns:xlink="http://www.w3.org/1999/xlink" x="0px" y="0px"
	 width="100%" viewBox="0 0 496 496" enable-background="new 0 0 496 496" xml:space="preserve">
<path fill="#000000" opacity="1.000000" stroke="none" 
	d="
M220.394455,157.625641 
	C222.046036,159.302124 223.485794,160.689880 224.834274,162.161285 
	C225.883362,163.306030 226.802414,164.639740 225.441757,166.101547 
	C223.965195,167.687851 222.364014,167.102127 221.053406,165.847504 
	C218.047806,162.970261 215.131348,159.999741 212.185196,157.060593 
	C209.003418,153.886368 205.853210,150.680054 202.643600,147.534317 
	C200.174591,145.114441 199.944443,142.669510 202.432709,140.170013 
	C208.302582,134.273666 214.181335,128.385849 220.099442,122.538040 
	C221.571991,121.082977 223.527161,119.684166 225.322601,121.477539 
	C227.390533,123.543091 225.051712,125.147995 223.810501,126.460083 
	C219.236984,131.294739 214.629791,136.112091 209.784088,140.668884 
	C207.158157,143.138245 207.384827,144.840057 209.897186,147.141846 
	C213.452667,150.399292 216.740875,153.948456 220.394455,157.625641 
z"/>
<path fill="#000000" opacity="1.000000" stroke="none" 
	d="
M258.915283,128.016922 
	C257.360565,125.761543 253.185349,124.250786 255.959427,121.478760 
	C258.436584,119.003441 260.715637,122.174538 262.541260,123.972603 
	C267.881775,129.232513 273.104919,134.611511 278.437103,139.880066 
	C281.102722,142.513870 281.166077,144.876450 278.411194,147.551300 
	C272.553894,153.238464 266.860748,159.094391 261.029724,164.809128 
	C259.552307,166.257095 257.795593,168.518036 255.647675,166.027725 
	C253.792328,163.876648 256.023682,162.363297 257.368011,161.044907 
	C263.056305,155.466507 268.831635,149.976883 275.414459,143.647873 
	C269.507965,138.060074 264.338623,133.169632 258.915283,128.016922 
z"/>
<path fill="#000000" opacity="1.000000" stroke="none" 
	d="
M237.496155,138.001923 
	C236.449249,136.982483 235.382187,136.038071 234.467194,137.446869 
	C233.840622,138.411621 233.646500,139.820221 235.570145,139.919983 
	C237.663422,140.028519 237.236404,141.573593 237.256180,142.836182 
	C237.298218,145.521103 234.845230,143.499695 233.806931,144.688477 
	C233.964996,146.176773 234.136993,147.796036 234.335098,149.661224 
	C232.368729,150.783020 230.341400,150.431198 228.192352,149.961761 
	C228.089523,145.075104 229.280548,140.315063 227.747406,135.067795 
	C235.979324,134.118851 244.025833,134.531601 252.038956,134.849442 
	C254.957611,134.965210 254.360062,137.446548 254.022705,139.406647 
	C252.413162,140.205795 252.382309,137.909607 250.753250,138.168503 
	C249.451355,141.827805 250.168381,145.668793 250.677902,149.607544 
	C248.715790,150.934433 246.599854,150.301682 244.077469,150.016251 
	C244.699631,145.823975 244.896530,141.652512 244.442337,136.990280 
	C242.024811,138.244705 240.321243,142.558624 237.496155,138.001923 
z"/>
</svg>