<svg version="1.1" id="Layer_1" xmlns="http://www.w3.org/2000/svg" xmlns:xlink="http://www.w3.org/1999/xlink" x="0px" y="0px"
	 width="100%" viewBox="0 0 175 102" enable-background="new 0 0 175 102" xml:space="preserve">
<path fill="#FDFDFD" opacity="1.000000" stroke="none" 
	d="
M123.000000,103.000000 
	C82.000008,103.000000 41.500011,103.000000 1.000011,103.000000 
	C1.000007,69.000008 1.000007,35.000019 1.000004,1.000020 
	C59.333317,1.000013 117.666634,1.000013 175.999969,1.000007 
	C175.999969,34.999981 175.999969,68.999962 175.999985,102.999969 
	C158.500000,103.000000 141.000000,103.000000 123.000000,103.000000 
M76.661140,32.153370 
	C75.451271,32.291370 74.241409,32.429375 72.183693,32.550381 
	C68.872742,32.494240 65.561798,32.438099 61.579109,32.048416 
	C61.103767,32.319172 60.628426,32.589931 60.153084,32.860687 
	C60.780712,33.227852 61.408337,33.595016 62.699757,34.510105 
	C62.699757,44.540340 62.699757,54.570580 62.699757,64.732712 
	C65.775497,64.732712 69.349541,64.732712 72.699875,64.732712 
	C72.699875,59.426373 72.699875,54.389160 72.699875,47.571636 
	C75.871124,50.477924 77.970154,52.401581 79.856674,54.130482 
	C79.856674,50.505722 79.856674,46.512844 79.856674,42.924969 
	C77.744614,44.751972 75.575058,46.628712 73.405495,48.505451 
	C72.948799,48.126499 72.492096,47.747551 72.035393,47.368603 
	C72.386177,42.938732 72.736954,38.508865 73.908455,34.063656 
	C74.993851,33.968182 76.079254,33.872707 77.854744,33.944969 
	C80.314835,36.708874 82.774918,39.472778 85.045731,42.024029 
	C85.045731,39.307529 85.045731,35.993462 85.045731,32.546799 
	C82.241333,32.546799 79.778519,32.546799 76.661140,32.153370 
M96.648079,33.955025 
	C97.102455,33.969257 97.556831,33.983486 98.091568,34.932320 
	C98.093895,42.744007 98.339577,50.567822 97.951126,58.360027 
	C97.833710,60.715393 95.958794,62.983150 95.113968,64.805573 
	C99.806267,64.805573 105.882355,64.805573 111.958435,64.805573 
	C107.737267,64.817917 107.566048,61.886387 107.578308,58.877590 
	C107.612144,50.571056 107.680023,42.264660 108.500458,33.895134 
	C111.634216,37.232677 114.767967,40.570221 117.621109,43.608910 
	C117.621109,40.428730 117.621109,36.364864 117.621109,31.915375 
	C113.779297,32.211716 110.374390,32.474358 106.099747,32.574612 
	C103.743401,32.616737 101.387047,32.658867 98.611404,32.334526 
	C97.729759,32.448917 96.848114,32.563313 95.197289,32.491978 
	C92.913048,32.491978 90.628815,32.491978 88.421043,32.491978 
	C88.421043,36.631905 88.421043,40.511211 88.421043,43.337822 
	C90.736992,40.436970 93.349686,37.164436 96.648079,33.955025 
M5.853127,57.593765 
	C13.627499,65.363251 21.403549,73.131065 29.175714,80.902756 
	C35.416714,87.143372 41.660172,93.381546 47.887520,99.635765 
	C50.079891,101.837601 52.476364,103.332367 55.209030,100.715248 
	C58.141247,97.907005 56.674294,95.342163 54.305202,93.011719 
	C53.830383,92.544655 53.357426,92.075668 52.886120,91.605064 
	C42.398140,81.132484 31.920612,70.649406 21.415833,60.193707 
	C18.739225,57.529602 15.976393,54.952129 12.576473,51.684471 
	C26.172432,38.328514 39.224461,25.510836 52.269218,12.685752 
	C53.456181,11.518774 55.184948,10.481162 55.609859,9.067252 
	C56.144161,7.289330 56.330994,4.455359 55.308689,3.423271 
	C54.241333,2.345702 51.529152,2.595515 49.595684,2.807940 
	C48.660873,2.910645 47.827923,4.222250 47.007816,5.045258 
	C33.137306,18.964891 19.266083,32.883846 5.418619,46.826397 
	C0.997475,51.277901 1.020344,52.437717 5.853127,57.593765 
M130.365067,4.984135 
	C127.951744,2.337080 125.125259,0.088180 121.953072,3.356319 
	C118.940056,6.460462 121.398514,9.000591 123.770226,11.364795 
	C135.448486,23.006104 147.045502,34.729012 158.742233,46.351631 
	C160.590500,48.188190 162.801834,49.659363 164.825195,51.283321 
	C163.340927,52.857124 162.897720,53.352127 162.428406,53.821011 
	C149.466812,66.770874 136.517136,79.732735 123.525078,92.651962 
	C121.243416,94.920837 119.214180,97.337418 121.854401,100.346245 
	C124.766762,103.665237 127.417740,101.771561 129.874039,99.311905 
	C143.762329,85.404678 157.677689,71.524483 171.581894,57.633118 
	C176.524780,52.694782 176.521561,51.316837 171.440857,46.207256 
	C157.934784,32.624378 144.413803,19.056322 130.365067,4.984135 
z"/>
<path fill="#060606" opacity="1.000000" stroke="none" 
	d="
M5.594459,57.343048 
	C1.020344,52.437717 0.997475,51.277901 5.418619,46.826397 
	C19.266083,32.883846 33.137306,18.964891 47.007816,5.045258 
	C47.827923,4.222250 48.660873,2.910645 49.595684,2.807940 
	C51.529152,2.595515 54.241333,2.345702 55.308689,3.423271 
	C56.330994,4.455359 56.144161,7.289330 55.609859,9.067252 
	C55.184948,10.481162 53.456181,11.518774 52.269218,12.685752 
	C39.224461,25.510836 26.172432,38.328514 12.576473,51.684471 
	C15.976393,54.952129 18.739225,57.529602 21.415833,60.193707 
	C31.920612,70.649406 42.398140,81.132484 52.886120,91.605064 
	C53.357426,92.075668 53.830383,92.544655 54.305202,93.011719 
	C56.674294,95.342163 58.141247,97.907005 55.209030,100.715248 
	C52.476364,103.332367 50.079891,101.837601 47.887520,99.635765 
	C41.660172,93.381546 35.416714,87.143372 29.175714,80.902756 
	C21.403549,73.131065 13.627499,65.363251 5.594459,57.343048 
z"/>
<path fill="#070707" opacity="1.000000" stroke="none" 
	d="
M130.631897,5.233255 
	C144.413803,19.056322 157.934784,32.624378 171.440857,46.207256 
	C176.521561,51.316837 176.524780,52.694782 171.581894,57.633118 
	C157.677689,71.524483 143.762329,85.404678 129.874039,99.311905 
	C127.417740,101.771561 124.766762,103.665237 121.854401,100.346245 
	C119.214180,97.337418 121.243416,94.920837 123.525078,92.651962 
	C136.517136,79.732735 149.466812,66.770874 162.428406,53.821011 
	C162.897720,53.352127 163.340927,52.857124 164.825195,51.283321 
	C162.801834,49.659363 160.590500,48.188190 158.742233,46.351631 
	C147.045502,34.729012 135.448486,23.006104 123.770226,11.364795 
	C121.398514,9.000591 118.940056,6.460462 121.953072,3.356319 
	C125.125259,0.088180 127.951744,2.337080 130.631897,5.233255 
z"/>
<path fill="#030303" opacity="1.000000" stroke="none" 
	d="
M73.087738,34.078999 
	C72.736954,38.508865 72.386177,42.938732 72.035393,47.368603 
	C72.492096,47.747551 72.948799,48.126499 73.405495,48.505451 
	C75.575058,46.628712 77.744614,44.751972 79.856674,42.924969 
	C79.856674,46.512844 79.856674,50.505722 79.856674,54.130482 
	C77.970154,52.401581 75.871124,50.477924 72.699875,47.571636 
	C72.699875,54.389160 72.699875,59.426373 72.699875,64.732712 
	C69.349541,64.732712 65.775497,64.732712 62.699757,64.732712 
	C62.699757,54.570580 62.699757,44.540340 62.379208,33.966377 
	C62.122719,33.075752 62.186783,32.728855 62.250847,32.381958 
	C65.561798,32.438099 68.872742,32.494240 72.634644,32.936302 
	C73.086304,33.574482 73.087021,33.826740 73.087738,34.078999 
z"/>
<path fill="#030303" opacity="1.000000" stroke="none" 
	d="
M107.734436,33.958210 
	C107.680023,42.264660 107.612144,50.571056 107.578308,58.877590 
	C107.566048,61.886387 107.737267,64.817917 111.958435,64.805573 
	C105.882355,64.805573 99.806267,64.805573 95.113968,64.805573 
	C95.958794,62.983150 97.833710,60.715393 97.951126,58.360027 
	C98.339577,50.567822 98.093895,42.744007 98.273376,34.289364 
	C98.647018,33.331272 98.838860,33.016132 99.030701,32.700996 
	C101.387047,32.658867 103.743401,32.616737 106.548225,32.920921 
	C107.242615,33.497555 107.488525,33.727882 107.734436,33.958210 
z"/>
<path fill="#494949" opacity="1.000000" stroke="none" 
	d="
M108.117447,33.926674 
	C107.488525,33.727882 107.242615,33.497555 106.983093,33.002113 
	C110.374390,32.474358 113.779297,32.211716 117.621109,31.915375 
	C117.621109,36.364864 117.621109,40.428730 117.621109,43.608910 
	C114.767967,40.570221 111.634216,37.232677 108.117447,33.926674 
z"/>
<path fill="#0F0F0F" opacity="1.000000" stroke="none" 
	d="
M95.962379,33.891899 
	C93.349686,37.164436 90.736992,40.436970 88.421043,43.337822 
	C88.421043,40.511211 88.421043,36.631905 88.421043,32.491978 
	C90.628815,32.491978 92.913048,32.491978 95.563904,32.888336 
	C95.941147,33.487095 95.951767,33.689495 95.962379,33.891899 
z"/>
<path fill="#0E0E0E" opacity="1.000000" stroke="none" 
	d="
M77.315697,32.546799 
	C79.778519,32.546799 82.241333,32.546799 85.045731,32.546799 
	C85.045731,35.993462 85.045731,39.307529 85.045731,42.024029 
	C82.774918,39.472778 80.314835,36.708874 77.613594,33.658722 
	C77.618217,33.079288 77.599304,32.804062 77.315697,32.546799 
z"/>
<path fill="#818181" opacity="1.000000" stroke="none" 
	d="
M76.988419,32.350082 
	C77.599304,32.804062 77.618217,33.079288 77.268547,33.574856 
	C76.079254,33.872707 74.993851,33.968182 73.498093,34.071327 
	C73.087021,33.826740 73.086304,33.574482 73.058563,32.944801 
	C74.241409,32.429375 75.451271,32.291370 76.988419,32.350082 
z"/>
<path fill="#494949" opacity="1.000000" stroke="none" 
	d="
M96.305229,33.923462 
	C95.951767,33.689495 95.941147,33.487095 95.948502,32.981201 
	C96.848114,32.563313 97.729759,32.448917 98.821053,32.517761 
	C98.838860,33.016132 98.647018,33.331272 98.233192,33.822060 
	C97.556831,33.983486 97.102455,33.969257 96.305229,33.923462 
z"/>
<path fill="#818181" opacity="1.000000" stroke="none" 
	d="
M61.914978,32.215187 
	C62.186783,32.728855 62.122719,33.075752 62.047310,33.692417 
	C61.408337,33.595016 60.780712,33.227852 60.153084,32.860687 
	C60.628426,32.589931 61.103767,32.319172 61.914978,32.215187 
z"/>
</svg>